<svg xmlns="http://www.w3.org/2000/svg" viewBox="0 0 512 512">
<defs><style>.base{opacity:.4} .light{opacity:.5} .dark{opacity:.6}</style></defs>
  <path class="dark" d="M130.344 194.388c17.376-.771 34.175-6.221 48.865-15.906a103.129 103.129 0 006.844-4.928 75.78 75.78 0 01-.399 2.365c-.198 1.22-.472 2.413-.72 3.609-.225.946-.423 1.891-.677 2.812-2.585 3.386-5.424 6.697-8.382 9.909-11.282 12.072-24.5 21.956-39.31 29.396a139.024 139.024 0 01-47.17 13.941 136.214 136.214 0 01-24.871.423 139.688 139.688 0 01-30.518-5.701 131.97 131.97 0 01-5.749-1.891c-12.818-17.226-21.684-37.416-25.691-58.424a140.802 140.802 0 01-1.223-7.568C.823 155.557 0 144.179 0 143.061c0-28.502 8.192-55.586 23.773-79.011v1.269c0 34.552 11.702 68.955 32.911 96.884a156.235 156.235 0 0010.455 12.422l.475.448a94.124 94.124 0 0011.874 7.642c5.798 3.136 11.871 5.7 18.096 7.566.896.275 1.84.548 2.735.798h.049l.051.051.624.148.1.024c1.144.3 2.264.572 3.407.822.151.049.303.073.454.1.696.174 1.393.299 2.112.447 2.242.45 4.533.798 6.821 1.096.399.051.798.099 1.22.149.795.099 1.594.174 2.39.249.172.026.324.026.499.05 1.068.076 2.188.15 3.335.226"/>
  <path class="light" d="M194.395 155.807c-.799-17.153-6.205-33.981-15.911-48.717a101.536 101.536 0 00-4.929-6.846c2.99.45 5.926 1.045 8.788 1.768a142.474 142.474 0 019.909 8.415c12.072 11.251 21.955 24.493 29.399 39.304a138.998 138.998 0 0113.938 47.173c.897 8.24 1.049 16.604.425 24.87a137.527 137.527 0 01-5.7 30.516c-.601 1.99-1.27 3.984-1.895 5.75-17.226 12.798-37.414 21.682-58.423 25.689-2.486.472-5.101.898-7.54 1.221-6.898.523-18.247 1.32-19.39 1.344-28.506 0-55.589-8.187-79.013-23.771h1.268c34.552 0 68.982-11.702 96.883-32.909a160.582 160.582 0 0012.447-10.456l.423-.473a94.26 94.26 0 007.646-11.875 95.851 95.851 0 007.565-18.097c1.665-5.451 2.839-10.979 3.486-16.528a21.08 21.08 0 00.219-1.793 46.7 46.7 0 00.253-2.887c.097-.922.152-1.843.198-2.789"/>
  <path class="dark" d="M155.604 91.706c-17.323.821-34.075 6.274-48.688 15.906a95.09 95.09 0 00-6.845 4.928c.103-.746.224-1.492.375-2.239.097-.624.224-1.246.321-1.843.327-1.592.672-3.161 1.096-4.731a141.42 141.42 0 018.388-9.881c11.253-12.074 24.471-21.957 39.308-29.4a138.064 138.064 0 0147.169-13.913 133.767 133.767 0 0124.87-.448 139.67 139.67 0 0130.495 5.701c1.99.597 3.981 1.269 5.75 1.916 12.818 17.226 21.702 37.389 25.716 58.424a136.63 136.63 0 011.215 7.543c.528 6.894 1.32 18.247 1.35 19.366 0 28.526-8.192 55.585-23.803 79.01v-1.243c0-34.578-11.667-68.979-32.88-96.909a168.714 168.714 0 00-10.451-12.422l-.504-.448a95.647 95.647 0 00-11.851-7.641 97.031 97.031 0 00-18.094-7.568 97.029 97.029 0 00-28.301-4.232c-.303 0-.574 0-.877.025-.024-.025-.073-.025-.097 0"/>
  <path class="light" d="M91.707 130.339c.771 17.202 6.173 34.079 15.908 48.864a98.92 98.92 0 004.93 6.847c-.303-.05-.6-.1-.872-.15a69.072 69.072 0 01-3.438-.623c-.097-.024-.172-.049-.249-.049a104.763 104.763 0 01-4.206-.971 135.273 135.273 0 01-9.907-8.39c-12.074-11.253-21.981-24.493-29.425-39.303-7.417-14.839-12.123-30.719-13.914-47.173a138.293 138.293 0 01-.448-24.87 138.399 138.399 0 015.725-30.517c.575-1.968 1.271-3.958 1.894-5.751 17.226-12.794 37.413-21.68 58.423-25.688 2.463-.472 5.077-.897 7.543-1.221C130.568.822 141.915 0 143.066 0c28.499 0 55.557 8.19 78.979 23.774-35.095-.25-69.871 11.425-98.128 32.907a153.192 153.192 0 00-12.443 10.455l-.424.474a94.279 94.279 0 00-7.643 11.875 97.175 97.175 0 00-7.59 18.097 88.248 88.248 0 00-.799 2.811l-.024.027-.175.671c-.545 2.091-1.047 4.207-1.444 6.348-.224 1.071-.396 2.139-.572 3.211a85.91 85.91 0 00-.348 2.389c-.052.3-.1.572-.124.872-.052.374-.104.746-.128 1.12a153.2 153.2 0 01-.073.672 84.25 84.25 0 00-.399 5.003c-.024.224-.024.448-.048.672l-.076 1.843"/>

  <path class="base" d="M155.604 91.706c-17.323.821-34.075 6.274-48.688 15.906a95.09 95.09 0 00-6.845 4.928c.103-.746.224-1.492.375-2.239.097-.624.224-1.246.321-1.843.327-1.592.672-3.161 1.096-4.731a141.42 141.42 0 018.388-9.881c11.253-12.074 24.471-21.957 39.308-29.4a138.064 138.064 0 0147.169-13.913 133.767 133.767 0 0124.87-.448 139.67 139.67 0 0130.495 5.701c1.99.597 3.981 1.269 5.75 1.916 11.082 14.885 19.201 31.972 23.795 49.913a176.388 176.388 0 01-38.95 36.836 161.876 161.876 0 00-13.247-20.559 168.714 168.714 0 00-10.451-12.422l-.504-.448a95.647 95.647 0 00-11.851-7.641 97.031 97.031 0 00-18.094-7.568 97.029 97.029 0 00-28.301-4.232c-.303 0-.574 0-.877.025-.024-.025-.073-.025-.097 0m-67.658 31.615l.076-1.843c.024-.224.024-.448.048-.672.076-1.668.224-3.336.399-5.003l.073-.672c.024-.374.076-.746.128-1.12.024-.299.072-.572.124-.872.1-.795.224-1.593.348-2.389.176-1.072.348-2.141.572-3.211.396-2.141.899-4.256 1.444-6.348l.175-.671.024-.027c.248-.944.524-1.89.799-2.811a97.175 97.175 0 017.59-18.097 94.35 94.35 0 017.643-11.875l.424-.474a153.396 153.396 0 0112.443-10.455c28.257-21.482 63.034-33.157 98.128-32.907C198.623 8.19 171.564 0 143.066 0c-1.151 0-12.498.822-19.395 1.344-2.466.324-5.081.749-7.543 1.221-21.01 4.008-41.197 12.894-58.421 25.689-.623 1.793-1.319 3.783-1.894 5.751a138.34 138.34 0 00-5.725 30.517c-.6 8.24-.448 16.605.448 24.87 1.791 16.455 6.497 32.335 13.914 47.173a139.207 139.207 0 0019.124 28.57c6.221 2.241 12.616 4.109 19.139 5.645-6.617-12.631-10.376-26.418-11.005-40.439m102.732 34.376a50.536 50.536 0 01-.198 2.789l-.037.396a174.409 174.409 0 0030.177-12.393 141.893 141.893 0 00-2.73-5.778c-7.444-14.811-17.327-28.053-29.399-39.304a142.707 142.707 0 00-9.909-8.415 91.811 91.811 0 00-8.788-1.768 101.536 101.536 0 014.929 6.846c9.706 14.735 15.112 31.564 15.911 48.717M4.424 107.537c11.663 15.014 25.688 28.092 41.551 38.65-14.398-24.565-22.202-52.665-22.202-80.868V64.05C14.84 77.48 8.346 92.121 4.424 107.537z"/>
</svg>